<svg id="Слой_9" data-name="Слой 9" xmlns="http://www.w3.org/2000/svg" viewBox="0 0 451 451"><defs><style>.cls-1,.cls-2,.cls-3,.cls-4{fill:none;}.cls-1,.cls-2{stroke:#201600;}.cls-1,.cls-2,.cls-3{stroke-linecap:round;}.cls-1,.cls-2,.cls-3,.cls-4,.cls-5,.cls-6{stroke-miterlimit:10;}.cls-1{stroke-width:8px;}.cls-2,.cls-3,.cls-4,.cls-5{stroke-width:3px;}.cls-3,.cls-4,.cls-6{stroke:#000;}.cls-5{fill:#b31f24;stroke:#0d0015;}.cls-6{stroke-width:1.5px;}</style></defs><title>logo</title><circle class="cls-1" cx="225.5" cy="225.5" r="221.5"/><circle class="cls-2" cx="225.5" cy="225.5" r="200"/><path class="cls-3" d="M244.14,132.9c44.56,4.83,88.16,17.87,131.18,36" transform="translate(-4.5 -4.5)"/><path class="cls-3" d="M241.4,132.6c-23.5-2.55-35-3.35-47.59-1.55q10.37-.39,20.66-0.13c9,0.2,18,.78,26.93,1.68" transform="translate(-4.5 -4.5)"/><path class="cls-3" d="M241.4,132.6c0.7,0.07,1.41.14,2.11,0.23l0.63,0.07" transform="translate(-4.5 -4.5)"/><path class="cls-3" d="M245.48,133l-1.34-.14" transform="translate(-4.5 -4.5)"/><path class="cls-4" d="M175.3,147.82a52.88,52.88,0,0,1,3.22-4.66c8.34-10.69,22.47-12.41,35.95-12.16,5.42,0.1,10.73.52,15.53,0.8" transform="translate(-4.5 -4.5)"/><path class="cls-4" d="M139.24,168.76L98.81,205.22a0.24,0.24,0,0,0,.07.39c6.75,2.74,15-.82,21-3.88,9.39-4.8,17.89-11.38,25.75-18.36a168.81,168.81,0,0,0,22.23-23.67c2.82-3.7,5-7.85,7.43-11.8" transform="translate(-4.5 -4.5)"/><path class="cls-3" d="M273.51,199.9c-11.6-4.78-22.28-9-32.18-12.69" transform="translate(-4.5 -4.5)"/><path class="cls-4" d="M175.3,147.82s0,0,0,.08c-11.08,22.63-24.48,44.79-43.92,63.34a0.94,0.94,0,0,0,.31,1.58c12.41,4.12,28.09-5.12,49.33-40.16" transform="translate(-4.5 -4.5)"/><line class="cls-4" x1="236.83" y1="182.71" x2="236.82" y2="182.71"/><path class="cls-3" d="M193.81,131.05a154.94,154.94,0,0,0-17.1,3.65,16.35,16.35,0,0,0-8.1,5,257.81,257.81,0,0,1-29.37,29C114,189.59,92.11,196.2,75.13,189.15a0.85,0.85,0,0,1-.1-1.5l6.32-2.2c13.56-4.73,26.93-9.86,39.21-17.39a203.58,203.58,0,0,0,20.29-14.48c4.18-3.34,8.38-6.71,12.37-10.28,3.49-3.13,6.47-7,10.73-9.16,3.8-1.92,8.19-2,12.36-2.08s8.56-.58,12.85-0.8Q191.48,131.14,193.81,131.05Z" transform="translate(-4.5 -4.5)"/><path class="cls-3" d="M181,172.66q3.27-5.39,6.72-11.61a5.06,5.06,0,0,1,4.89-2.6c31.56,3.16,58.45,12.76,83.91,25.07a42.19,42.19,0,0,0,13.57,4c21.77,2.41,42-2.62,60.84-14.14a0.22,0.22,0,0,1,.28.35c-13,11.89-29,22.58-52.58,30.32h0c-1.83.61-3.71,1.19-5.63,1.76a77.05,77.05,0,0,1-31.22,2.26,336.13,336.13,0,0,0-71.8-1.55,145.37,145.37,0,0,0-20.68,3.08,1.16,1.16,0,0,1-1.35-1.53c5.3-14,36.65-20.24,73.4-20.85C217.36,178.38,197.94,173.12,181,172.66Z" transform="translate(-4.5 -4.5)"/><path class="cls-3" d="M298.61,204c32.05-1.07,61.21,8.19,87.28,28.62" transform="translate(-4.5 -4.5)"/><path class="cls-3" d="M85.19,297c60.55,25.51,122.26,40.95,186.16,37.64,4.29-.22,8.56-0.69,12.85-0.8s8.55-.16,12.36-2.08c4.26-2.15,7.24-6,10.73-9.16,4-3.57,8.18-6.94,12.37-10.28A202.89,202.89,0,0,1,340,297.85c12.28-7.54,25.65-12.66,39.21-17.4l6.32-2.19a0.85,0.85,0,0,0-.1-1.5c-23.27-9.66-55.71,6.33-93.48,49.4a16.31,16.31,0,0,1-8.1,5.05c-23.09,6.05-32.17,5.68-68.77,1.66" transform="translate(-4.5 -4.5)"/><path class="cls-4" d="M321.27,297.14l40.42-36.46a0.23,0.23,0,0,0-.06-0.38c-6.76-2.75-15,.81-21,3.88-9.39,4.79-17.89,11.38-25.75,18.36a168,168,0,0,0-22.23,23.66c-4,5.24-6.64,11.36-10.69,16.55-11.7,15-34.76,12.34-51.49,11.35" transform="translate(-4.5 -4.5)"/><path class="cls-3" d="M279.53,293.25c-24-.66-52.85-10.89-92.53-27.24" transform="translate(-4.5 -4.5)"/><path class="cls-4" d="M219.18,278.69c36.76-.61,68.11-6.83,73.41-20.85a1.15,1.15,0,0,0-1.35-1.53,146.09,146.09,0,0,1-20.69,3.07,336.12,336.12,0,0,1-71.79-1.54,77,77,0,0,0-31.22,2.26c-26.67,7.83-44.22,19.26-58.23,32.08a0.23,0.23,0,0,0,.28.35C128.46,281,148.67,276,170.44,278.4a41.87,41.87,0,0,1,13.57,4c25.46,12.31,52.35,21.91,83.91,25.07a5.06,5.06,0,0,0,4.89-2.6c24.72-44.61,42.38-56.31,56-51.77a0.94,0.94,0,0,1,.31,1.58c-19.46,18.57-32.87,40.76-44,63.42" transform="translate(-4.5 -4.5)"/><path class="cls-3" d="M161.91,261.86c-32,1.08-61.22-8.18-87.29-28.61" transform="translate(-4.5 -4.5)"/><path class="cls-4" d="M110.28,243.2" transform="translate(-4.5 -4.5)"/><path class="cls-5" d="M230.25,220.25q6.68-6.67,13.36-3.92c4,1.64,5.24,6.14,4.5,10.41-1.6,9.24-12.34,21-17.86,23.26-5.52-2.24-16.26-14-17.86-23.26-0.74-4.27.53-8.77,4.5-10.41Q223.57,213.58,230.25,220.25Z" transform="translate(-4.5 -4.5)"/><path class="cls-6" d="M205.2,373.7a1.55,1.55,0,0,1,1.11-.13c0.13,0,.19,0,0.19.07s0,0,0,.09a27.24,27.24,0,0,1-2.39,1.55q-1.3.75-2.92,1.55a21.07,21.07,0,0,1-3.31,1.3,23.6,23.6,0,0,1-3.39.75,11.36,11.36,0,0,1-3.31,0,7.71,7.71,0,0,1-2.89-1,3.12,3.12,0,0,1-1.19-1.38,5.82,5.82,0,0,1-.52-1.83,17.51,17.51,0,0,0-.3-1.83,5.6,5.6,0,0,0-.52-1.48,1.38,1.38,0,0,0-1.18-.65,5,5,0,0,0-2.27.52c-2.25.94-5.17,2.4-8.82,4.33a2.22,2.22,0,0,1-1,.14c-0.26,0-.36-0.09-0.3-0.2q0.78-1.35,2.27-4c1-1.78,1.72-3.12,2.2-4a1,1,0,0,1,1-.21c0.27,0,.4.11,0.39,0.21-0.49.89-1.19,2.15-2.08,3.79s-1.5,2.7-1.79,3.2c2.31-1.17,4.28-2.14,5.93-2.9l0.54-.24,0.64-.3,0.68-.31q0.4-.19.72-0.31l0.73-.25a6,6,0,0,1,.75-0.19,7.24,7.24,0,0,1,.72-0.09,3.07,3.07,0,0,1,.72,0,2.57,2.57,0,0,1,.62.18,3,3,0,0,1,1.4,1.14,3.14,3.14,0,0,1,.49,1.52q0,0.8.15,1.69a12.29,12.29,0,0,0,.3,1.63,2.41,2.41,0,0,0,1,1.32,5.28,5.28,0,0,0,2.28.8,13.43,13.43,0,0,0,6.75-.85A28.81,28.81,0,0,0,205.2,373.7Z" transform="translate(-4.5 -4.5)"/><path class="cls-6" d="M227.57,374.45a1.25,1.25,0,0,1,1.06-.14c0.28,0.06.3,0.19,0.06,0.39a26.07,26.07,0,0,1-7.5,3.73,27.22,27.22,0,0,1-8.45,1.31h-1.91l-0.86-.06a2.37,2.37,0,0,1-.82-0.18,4.23,4.23,0,0,1-.58-0.36,1.1,1.1,0,0,1-.42-0.59,2.42,2.42,0,0,1-.08-0.84,4.23,4.23,0,0,1,.15-0.82c-2.37,2.22-4.24,3-5.55,2.3s-1.22-1.72,0-3.28a12.56,12.56,0,0,1,4-3.29,5.16,5.16,0,0,1,3-.85c0.44,0.07.52,0.24,0.23,0.49a0.93,0.93,0,0,1-.78.22,3.53,3.53,0,0,0-2.72,1.06A12,12,0,0,0,204,376l-0.26.47a6.15,6.15,0,0,0-.31.68,2,2,0,0,0-.15.76,0.6,0.6,0,0,0,.26.52l0.19,0.06a0.57,0.57,0,0,0,.28,0l0.32-.11a1.84,1.84,0,0,0,.34-0.18L205,378l0.31-.23,0.29-.23,0.24-.19,0.17-.14a33.51,33.51,0,0,0,4.79-4.8,1.15,1.15,0,0,1,1-.27c0.35,0,.46.16,0.3,0.37a22.26,22.26,0,0,0-2.13,3.63l-0.37.84q-0.08.17-.17,0.48a1.61,1.61,0,0,0-.1.52,0.74,0.74,0,0,0,.09.36,1.2,1.2,0,0,0,.44.37,2.59,2.59,0,0,0,.62.23,6,6,0,0,0,.84.12l0.88,0.06a8.78,8.78,0,0,0,.93,0l0.85,0,0.75-.06a3.36,3.36,0,0,0,.53-0.07,24.65,24.65,0,0,0,6.54-1.43A22.57,22.57,0,0,0,227.57,374.45Z" transform="translate(-4.5 -4.5)"/><path class="cls-6" d="M246.82,373.61a1.34,1.34,0,0,1,1.08-.28c0.27,0,.35.09,0.2,0.26a26.15,26.15,0,0,1-4.16,3.66,22.36,22.36,0,0,1-5.14,2.69,16.94,16.94,0,0,1-5.65,1.1c-4.32.07-6.51-1-6.54-3.06a6.52,6.52,0,0,1,.5-2.41,14.68,14.68,0,0,1,1-2.17q0.49-.83,1.36-2.13a1,1,0,0,1,.93-0.32c0.35,0,.47.13,0.32,0.33a21.1,21.1,0,0,0-2.17,4.29,0.31,0.31,0,0,0-.07.12c-0.51,1.42-.63,2.41-0.35,3,0.6,1.23,2.59,1.82,5.93,1.67a15.52,15.52,0,0,0,6.85-2.06A23.08,23.08,0,0,0,246.82,373.61ZM230,369.09a0.75,0.75,0,0,1-.92.08c-0.31-.17-0.31-0.4,0-0.65l0.59-.41c0.2-.14.42-0.28,0.65-0.41l0.6-.34,0.69-.37,0.63-.33a0.61,0.61,0,0,1,.85.09c0.15,0.21.07,0.46-.25,0.65A25.11,25.11,0,0,0,230,369.09Z" transform="translate(-4.5 -4.5)"/><path class="cls-6" d="M268.58,372.5a0.76,0.76,0,0,1,.92-0.15c0.33,0.15.35,0.36,0,.65a25.19,25.19,0,0,1-7.16,4.89,29.51,29.51,0,0,1-8.65,2.54l-2,.15a7.71,7.71,0,0,1-2-.12,7.4,7.4,0,0,1-1.73-.55,2.48,2.48,0,0,1-1.16-1.13,3.27,3.27,0,0,1-.32-1.85,30.82,30.82,0,0,1,.82-4.43q0.6-2.43,1.21-4.23l1.51-4.5c0.6-1.8,1-3.19,1.31-4.16q1.78-6.08,3.25-11.14a0.67,0.67,0,0,1,.78-0.44c0.4,0,.56.19,0.46,0.53-2.42,8.36-4.59,15.7-6.33,22-0.09.32-.33,1-0.72,2.1a22.25,22.25,0,0,0-.84,2.8,5.59,5.59,0,0,0-.09,2.13,2,2,0,0,0,.76,1.27,3,3,0,0,0,1.43.59,14.15,14.15,0,0,0,1.71.12,8.38,8.38,0,0,0,1.61-.12,26.89,26.89,0,0,0,8.26-2.34A24.6,24.6,0,0,0,268.58,372.5Z" transform="translate(-4.5 -4.5)"/><path class="cls-6" d="M290.07,369.78c0.37,0,.34.14-0.07,0.4a1.65,1.65,0,0,1-.7.32c-4.76.07-9.47,2-14.34,5.66a8.85,8.85,0,0,1,2.56,1.67,3.06,3.06,0,0,1,.73,1.23,3.7,3.7,0,0,1,.17,1.24,4.31,4.31,0,0,1-.34,1.34,12.14,12.14,0,0,1-.57,1.25q-0.26.48-.74,1.25a32.69,32.69,0,0,1-1.88,2.74,33,33,0,0,1-2.39,2.78,26.44,26.44,0,0,1-2.82,2.56,19.81,19.81,0,0,1-3.17,2,12.9,12.9,0,0,1-3.4,1.19,4.92,4.92,0,0,1-2.53,0,1.48,1.48,0,0,1-1.06-1,3.92,3.92,0,0,1,.08-1.7,8.22,8.22,0,0,1,.71-1.91,14.87,14.87,0,0,1,1.05-1.73,60.31,60.31,0,0,1,5.36-6.61,51,51,0,0,1,6.44-5.86l-0.88-.46-0.92-.49a6.3,6.3,0,0,1-2-1.67,3,3,0,0,1-.61-2.12,3.68,3.68,0,0,1,1.18-2.27,6.16,6.16,0,0,1,1.66-1.19,4.29,4.29,0,0,1,2-.44,2.61,2.61,0,0,1,1.82.73q0.21,0.19-.41.48a0.77,0.77,0,0,1-.81.11,1.71,1.71,0,0,0-1.46-.23,4.26,4.26,0,0,0-1.63.86,2.67,2.67,0,0,0-1,1.26,2.73,2.73,0,0,0,.08,1.69,2.91,2.91,0,0,0,.34.64,2.67,2.67,0,0,0,.53.54l0.56,0.42c0.16,0.11.41,0.24,0.69,0.39s1,0.54,1.9,1C279.59,371.88,284.8,369.88,290.07,369.78ZM276.24,383a6,6,0,0,0,.64-2.11,2.79,2.79,0,0,0-.34-1.65,4.52,4.52,0,0,0-1-1.23,10.78,10.78,0,0,0-1.6-1.06,62.48,62.48,0,0,0-5.94,5.53q-1.6,1.7-2.58,2.8t-2.21,2.78a17.59,17.59,0,0,0-1.91,3.16c-0.15.33-.27,0.59-0.33,0.77s-0.14.43-.23,0.75a2.2,2.2,0,0,0-.09.85,1.28,1.28,0,0,0,.31.69c1,1.33,3.31.8,6.74-1.65a31.92,31.92,0,0,0,5-4.49A22.64,22.64,0,0,0,276.24,383Z" transform="translate(-4.5 -4.5)"/><path class="cls-6" d="M166.63,87.49a0.83,0.83,0,0,1,.88,0q0.18,0.16-.25.38a0.09,0.09,0,0,0-.06,0,57.86,57.86,0,0,1-9.12,3.69,28.13,28.13,0,0,1-8.65,1.22c0.83,1.27,1,3.2.47,5.8a38.83,38.83,0,0,1-2.8,8.4c-1.35,3-2.51,5.48-3.49,7.43s-1.87,3.65-2.68,5.1a1.07,1.07,0,0,1-.78.45c-0.24,0-.4,0-0.42-0.14a270.48,270.48,0,0,1,3.41-28,131.19,131.19,0,0,1,4.63-19.49q0.05-.1.33-0.94t0.37-1.07l0.39-1q0.31-.8.46-1.11t0.5-1a8.35,8.35,0,0,1,.57-1l0.63-.9a5.77,5.77,0,0,1,.76-0.9q0.37-.35.84-0.72a6,6,0,0,1,1-.64,1,1,0,0,1,.91-0.11,3,3,0,0,1,1.07,1,2.85,2.85,0,0,1,.46,1.4,10.79,10.79,0,0,1,0,1.65,8.8,8.8,0,0,1-.38,1.89q-0.32,1-.62,1.9t-0.8,1.91q-0.49,1-.82,1.7l-0.75,1.52-0.56,1.12q-3.23,6.73-7.43,13.66l-0.06,0c0,0.06,0,.13,0,0.2a1.7,1.7,0,0,1,0,.19,1.84,1.84,0,0,0,0,.19l0,0.2a8.18,8.18,0,0,1,4.19.62c1.05,0.39,3,.12,4.58,0a27.55,27.55,0,0,0,4.58-.9,42.36,42.36,0,0,0,4.37-1.5Q164.28,88.66,166.63,87.49Zm-25.46,29.59q0.83-1.57,1.63-3.23t1.79-3.84q1-2.19,1.78-4.19t1.43-4.13a26.44,26.44,0,0,0,.89-3.81,9.94,9.94,0,0,0,0-3.08,3.09,3.09,0,0,0-1.1-2.12c-0.71-.29-2.18-0.26-3.28-0.5Q142.23,104.12,141.17,117.08Zm10.21-50.4a35.9,35.9,0,0,0-2,4.23,47.85,47.85,0,0,0-1.61,4.92q-0.73,2.69-1.11,4.42t-1,4.82c-0.12.56-.19,1-0.24,1.26s-0.09.46-.16,0.82-0.11.61-.13,0.75a124.82,124.82,0,0,0,7.21-14l0.32-.79q0.53-1.24.83-2t0.68-1.94a9.83,9.83,0,0,0,.45-2.21,5.6,5.6,0,0,0-.16-1.88,2.22,2.22,0,0,0-.83-1.43h0l-0.39.35A11.78,11.78,0,0,0,151.38,66.68Z" transform="translate(-4.5 -4.5)"/><path class="cls-6" d="M188.11,85.62A0.72,0.72,0,0,1,189,85.5c0.32,0.16.33,0.37,0,.65a27.16,27.16,0,0,1-7,4.78,30.86,30.86,0,0,1-8.21,2.68l-1.88.23a7.23,7.23,0,0,1-1.92,0,7.08,7.08,0,0,1-1.68-.46,2.47,2.47,0,0,1-1.18-1.06,3.4,3.4,0,0,1-.43-1.82,29.87,29.87,0,0,1,.51-4.48q0.44-2.47.94-4.3t1.29-4.58q0.79-2.75,1.17-4.22,1.61-6.16,3.13-11.28a0.75,0.75,0,0,1,.85-0.46c0.44,0,.61.18,0.51,0.52-2.53,8.44-4.44,15.88-5.83,22.29-0.07.33-.27,1-0.6,2.14a21.55,21.55,0,0,0-.66,2.85,5.75,5.75,0,0,0,0,2.13,2,2,0,0,0,.8,1.23,2.84,2.84,0,0,0,1.4.52,13.65,13.65,0,0,0,1.64,0,8,8,0,0,0,1.54-.18,27.94,27.94,0,0,0,7.87-2.49A26.58,26.58,0,0,0,188.11,85.62Z" transform="translate(-4.5 -4.5)"/><path class="cls-6" d="M210,84.64a1.2,1.2,0,0,1,1-.18q0.41,0.08.08,0.38a29.38,29.38,0,0,1-15,6.2l-0.88.1-0.93.1-0.83,0a2.21,2.21,0,0,1-.8-0.08,4.06,4.06,0,0,1-.6-0.29,1.1,1.1,0,0,1-.47-0.54,2.52,2.52,0,0,1-.18-0.82,4.32,4.32,0,0,1,0-.84c-2,2.49-3.63,3.51-5,3s-1.41-1.52-.49-3.24a11.76,11.76,0,0,1,3.42-3.82,4.91,4.91,0,0,1,2.83-1.23c0.44,0,.54.17,0.28,0.46a0.9,0.9,0,0,1-.74.32,3.39,3.39,0,0,0-2.51,1.4,11.39,11.39,0,0,0-1.93,2.8l-0.18.51a6,6,0,0,0-.2.72,2.08,2.08,0,0,0,0,.78,0.61,0.61,0,0,0,.32.48l0.19,0a0.53,0.53,0,0,0,.26-0.08L188,90.7a1.71,1.71,0,0,0,.3-0.23l0.28-.26,0.26-.27,0.25-.27,0.2-.22,0.15-.16a38.94,38.94,0,0,0,4-5.36,1.12,1.12,0,0,1,.93-0.38c0.35,0,.47.11,0.34,0.34a20.91,20.91,0,0,0-1.66,3.86l-0.26.88c0,0.12-.07.29-0.11,0.5a1.69,1.69,0,0,0,0,.52,0.77,0.77,0,0,0,.13.35,1.14,1.14,0,0,0,.46.31,2.41,2.41,0,0,0,.62.16,5.79,5.79,0,0,0,.81,0l0.84,0a8.35,8.35,0,0,0,.89-0.11l0.81-.14,0.71-.13a3,3,0,0,0,.49-0.12,25.58,25.58,0,0,0,6.16-2A24.15,24.15,0,0,0,210,84.64Z" transform="translate(-4.5 -4.5)"/><path class="cls-6" d="M242,84.38a1.52,1.52,0,0,1,.92-0.1c0.18,0,.13.1-0.16,0.24q-1.21.54-2.58,1t-3.2,1a36.36,36.36,0,0,1-3.55.86,20.35,20.35,0,0,1-3.52.34,13.34,13.34,0,0,1-3.24-.32,6.16,6.16,0,0,1-2.59-1.31,5.56,5.56,0,0,1-1.67-2.53q-0.61,1.14-1.15,2T220,87.5a9.37,9.37,0,0,1-1.58,1.67,6.38,6.38,0,0,1-1.77,1q-1.61.58-2.19-.08a2.66,2.66,0,0,1-.44-2.08c-1.51,1.83-3,2.53-4.4,2.11a2,2,0,0,1-1.24-.91,1.75,1.75,0,0,1-.07-1.4,8.38,8.38,0,0,1,.72-1.6,10.42,10.42,0,0,1,1.21-1.67q0.74-.84,1.26-1.4t1-1a1.68,1.68,0,0,1,1-.27,0.21,0.21,0,0,1,.19.05s0,0,0,.06q-0.83.77-1.3,1.24t-1.25,1.35A7.14,7.14,0,0,0,210,86.33a3.78,3.78,0,0,0-.38,1.56c0,1.37.5,1.79,1.52,1.32a6.62,6.62,0,0,0,2.35-2,1,1,0,0,0,.18-0.24,17.59,17.59,0,0,0,1.35-2.3,1.17,1.17,0,0,1,1.09-.33,0.33,0.33,0,0,1,.22.05,13.34,13.34,0,0,0-1,2.76,2.12,2.12,0,0,0,.18,1.9,1.07,1.07,0,0,0,1.33.08,4.84,4.84,0,0,0,1.64-1.41A35,35,0,0,0,222.07,82a0.93,0.93,0,0,1,.39-0.21,3.43,3.43,0,0,1,.61-0.17,0.32,0.32,0,0,1,.35.07,6.46,6.46,0,0,0,1.14,3,5.1,5.1,0,0,0,2.16,1.73,9.44,9.44,0,0,0,2.9.65,14.84,14.84,0,0,0,3.28-.11,32.73,32.73,0,0,0,3.39-.69q1.76-.45,3.15-1T242,84.38Z" transform="translate(-4.5 -4.5)"/><path class="cls-6" d="M263.58,84.86a0.72,0.72,0,0,1,.92,0c0.3,0.2.28,0.41-.07,0.65a27.15,27.15,0,0,1-7.51,3.9,30.82,30.82,0,0,1-8.47,1.67h-1.89a7.21,7.21,0,0,1-1.9-.26,7.07,7.07,0,0,1-1.61-.65,2.46,2.46,0,0,1-1-1.19,3.4,3.4,0,0,1-.21-1.86,29.93,29.93,0,0,1,1-4.38q0.74-2.4,1.45-4.15t1.83-4.39q1.12-2.64,1.67-4.05,2.34-5.92,4.46-10.82a0.75,0.75,0,0,1,.9-0.36c0.43,0.05.58,0.25,0.44,0.58-3.52,8.08-6.32,15.23-8.47,21.43q-0.17.47-.85,2.05a21.4,21.4,0,0,0-1,2.75,5.76,5.76,0,0,0-.21,2.12,2,2,0,0,0,.65,1.32,2.84,2.84,0,0,0,1.33.68,13.62,13.62,0,0,0,1.62.24,7.94,7.94,0,0,0,1.54,0,27.9,27.9,0,0,0,8.1-1.52A26.57,26.57,0,0,0,263.58,84.86Z" transform="translate(-4.5 -4.5)"/><path class="cls-6" d="M287.79,86.58a0.83,0.83,0,0,1,.92,0c0.21,0.15.18,0.36-.11,0.56A35,35,0,0,1,279.91,91a18,18,0,0,1-8.66.42L270,91.11q-0.66-.16-1.58-0.44a17.4,17.4,0,0,1-1.7-.6q-0.78-.33-1.57-0.74a4.86,4.86,0,0,1-1.28-.93,4.11,4.11,0,0,1-.76-1.1A1.77,1.77,0,0,1,263,86a3.9,3.9,0,0,1,.88-1.44,7.66,7.66,0,0,1,2-1.45,15.82,15.82,0,0,1,3-1.26,9.67,9.67,0,0,1,3.08-.47,3,3,0,0,1,2.26.89,1.64,1.64,0,0,1,.39.76,1.18,1.18,0,0,1-.08.71,2.54,2.54,0,0,1-.42.64,3.7,3.7,0,0,1-.64.57q-0.36.26-.71,0.46a6.72,6.72,0,0,1-.7.36,10.86,10.86,0,0,1-7.62.42,2.13,2.13,0,0,0,.75,1.83A8.31,8.31,0,0,0,268.3,90a14.54,14.54,0,0,0,4,.83,24.79,24.79,0,0,0,4.06-.07A19,19,0,0,0,280,90,33.1,33.1,0,0,0,287.79,86.58ZM268,83.13a6.45,6.45,0,0,0-3.25,2.17,9.13,9.13,0,0,0,5.89.1,6.18,6.18,0,0,0,.6-0.22l0.7-.33a2.51,2.51,0,0,0,.66-0.45,1.78,1.78,0,0,0,.37-0.53,0.72,0.72,0,0,0-.05-0.64,2.1,2.1,0,0,0-.73-0.72C271.6,82.11,270.19,82.32,268,83.13Z" transform="translate(-4.5 -4.5)"/><path class="cls-6" d="M308.87,88.8c0.35,0.1.28,0.22-.17,0.37a1.58,1.58,0,0,1-.75.12c-4.49-1.21-9.47-.52-14.81,2.1a8.25,8.25,0,0,1,2,2.18,3.12,3.12,0,0,1,.41,1.36,3.93,3.93,0,0,1-.11,1.24,4.55,4.55,0,0,1-.6,1.24,13,13,0,0,1-.78,1.1q-0.34.41-.93,1.07-1.05,1.18-2.24,2.3t-2.67,2.27a27.34,27.34,0,0,1-3,2,18.76,18.76,0,0,1-3.14,1.46,11.12,11.12,0,0,1-3.18.65,4,4,0,0,1-2.23-.36,1.45,1.45,0,0,1-.8-1.18,4.33,4.33,0,0,1,.31-1.68,8.47,8.47,0,0,1,.9-1.8,14.2,14.2,0,0,1,1.19-1.56A46.65,46.65,0,0,1,284.3,96a39.69,39.69,0,0,1,7.08-4.58l-0.74-.62-0.77-.66a6.4,6.4,0,0,1-1.61-2,3.09,3.09,0,0,1-.2-2.2,3.64,3.64,0,0,1,1.56-2,6,6,0,0,1,1.85-.84,4.18,4.18,0,0,1,2,0,2.56,2.56,0,0,1,1.61,1.1c0.11,0.15-.06.28-0.5,0.38a0.76,0.76,0,0,1-.8-0.07,1.67,1.67,0,0,0-1.37-.52,4.11,4.11,0,0,0-1.75.52,2.63,2.63,0,0,0-1.18,1.06,2.78,2.78,0,0,0-.25,1.68,3,3,0,0,0,.21.69,2.7,2.7,0,0,0,.4.63q0.26,0.31.46,0.52c0.13,0.14.35,0.31,0.58,0.52s0.85,0.73,1.61,1.32C298.38,88.14,303.88,87.46,308.87,88.8Zm-16,9.59a6.36,6.36,0,0,0,1-1.93,2.94,2.94,0,0,0,0-1.69,4.47,4.47,0,0,0-.71-1.41A10,10,0,0,0,292,92a46.63,46.63,0,0,0-6.56,4.32q-1.77,1.4-2.84,2.33a34,34,0,0,0-2.45,2.4,16.54,16.54,0,0,0-2.19,2.84q-0.28.46-.41,0.71t-0.31.71a2.42,2.42,0,0,0-.2.83,1.39,1.39,0,0,0,.17.73c0.73,1.47,2.78,1.25,6.23-.61a34.08,34.08,0,0,0,5.26-3.53A24.62,24.62,0,0,0,292.92,98.39Z" transform="translate(-4.5 -4.5)"/><path class="cls-6" d="M328.76,91.59c0.34,0.11.28,0.23-.18,0.36a1.59,1.59,0,0,1-.75.09c-4.45-1.35-9.46-.82-14.88,1.62a8.26,8.26,0,0,1,2,2.24,3.12,3.12,0,0,1,.37,1.37,3.93,3.93,0,0,1-.15,1.24,4.54,4.54,0,0,1-.64,1.22,13,13,0,0,1-.82,1.08q-0.35.4-1,1-1.09,1.14-2.32,2.23t-2.74,2.18a27.36,27.36,0,0,1-3,1.92,18.78,18.78,0,0,1-3.19,1.36,11.14,11.14,0,0,1-3.2.55,4,4,0,0,1-2.22-.44,1.45,1.45,0,0,1-.76-1.2,4.33,4.33,0,0,1,.36-1.67,8.46,8.46,0,0,1,1-1.77,14.2,14.2,0,0,1,1.24-1.53,46.64,46.64,0,0,1,6.13-5.5,39.71,39.71,0,0,1,7.23-4.35L310.45,93l-0.75-.68a6.4,6.4,0,0,1-1.55-2.08A3.08,3.08,0,0,1,308,88a3.64,3.64,0,0,1,1.63-2,6,6,0,0,1,1.87-.78,4.19,4.19,0,0,1,2,0,2.57,2.57,0,0,1,1.58,1.15c0.11,0.15-.06.28-0.51,0.37a0.76,0.76,0,0,1-.8-0.09,1.67,1.67,0,0,0-1.35-.57,4.12,4.12,0,0,0-1.77.46,2.63,2.63,0,0,0-1.21,1,2.78,2.78,0,0,0-.3,1.67,3,3,0,0,0,.18.7,2.7,2.7,0,0,0,.38.65q0.25,0.32.44,0.53c0.13,0.15.34,0.32,0.57,0.54s0.82,0.75,1.56,1.37C318.28,90.59,323.81,90.09,328.76,91.59Zm-16.27,9.07a6.35,6.35,0,0,0,1.08-1.9,2.94,2.94,0,0,0,.08-1.68,4.47,4.47,0,0,0-.66-1.44,10,10,0,0,0-1.24-1.41,46.65,46.65,0,0,0-6.7,4.11q-1.82,1.34-2.91,2.23a34,34,0,0,0-2.53,2.32,16.53,16.53,0,0,0-2.28,2.77q-0.29.45-.43,0.7t-0.34.7a2.42,2.42,0,0,0-.23.83,1.39,1.39,0,0,0,.15.73c0.68,1.49,2.74,1.34,6.25-.4a34.1,34.1,0,0,0,5.38-3.36A24.63,24.63,0,0,0,312.49,100.66Z" transform="translate(-4.5 -4.5)"/></svg>